<?xml version="1.0" encoding="UTF-8" standalone="no"?>
<svg width="400px" height="400px" viewBox="0 0 400 400" version="1.1" xmlns="http://www.w3.org/2000/svg" xmlns:xlink="http://www.w3.org/1999/xlink">
    <!-- Generator: Sketch 41.2 (35397) - http://www.bohemiancoding.com/sketch -->
    <title>flat icon</title>
    <desc>Created with Sketch.</desc>
    <defs></defs>
    <g id="Page-1" stroke="none" stroke-width="1" fill="none" fill-rule="evenodd">
        <g id="flat-icon" fill="#FF81F9">
            <path d="M246.285342,323.145222 C247.319382,325.741073 255.389039,345.091121 268.752688,351.888238 C283.089606,359.180385 290.258065,357.3039 290.258065,357.3039 C290.258065,357.3039 278.071685,312.181928 288.824373,276.300316 C299.577061,240.418704 308.537634,237.192897 308.537634,237.192897 C308.537634,237.192897 328.250896,245.078202 341.154122,237.192897 C354.057348,229.307593 358,213.895406 358,213.895406 C358,213.895406 349.039427,180.920496 341.154122,168.01727 C333.268817,155.114044 324.796007,148.287106 314.272401,143.64451 C308.637816,141.158755 300.508585,137.635788 294.171407,134.898916 C292.423267,123.607551 288.691567,108.478004 280.791864,92.2717338 C264.488342,58.824999 243.701853,38.4179794 243.701853,38.4179794 C243.701853,38.4179794 232.83493,47.7604327 230.043011,65.5083094 C237.494428,72.1331926 249.526423,84.8498655 260.150538,97.7663739 C265.477505,104.242755 272.220761,114.136615 277.620815,122.392688 C270.412599,114.007331 258.057161,100.483058 242.946237,87.3721087 C218.573477,66.2251553 194.55914,49.7377001 194.55914,49.7377001 C194.55914,49.7377001 177.354839,76.6194205 197.784946,113.536983 C211.763441,137.245662 247.164889,157.662323 247.164889,157.662323 C247.164889,157.662323 210.688172,159.454438 197.784946,162.282503 C184.88172,165.110568 170.544803,170.167808 154.415771,180.920496 C138.286738,191.673184 127.616473,202.872685 114.272401,221.063865 C100.928329,239.255045 88.1075269,270.526231 88.1075269,270.526231 C88.1075269,270.526231 86.3154122,268.01727 74.1290323,268.01727 C61.9426523,268.01727 58,270.526231 58,270.526231 C58,270.526231 58.3584229,301.350603 65.8853047,316.404367 C73.4121864,331.45813 84.1648746,337.232215 97.7849462,337.232215 C101.369176,337.192897 108.896057,337.232215 108.896057,337.232215 C108.896057,337.232215 118.215054,351.888238 123.949821,355.472467 C129.684588,359.056696 139.72043,358.339851 139.72043,358.339851 L249.756272,358.339851 C249.756272,358.339851 249.12185,350.096123 242.946237,343.64451 C236.987013,337.418957 229.846305,335.532092 228.065006,334.763405 C224.859122,333.815745 219.60249,332.533399 214.630824,332.533399 L186.315412,332.533399 C186.315412,332.533399 222.172943,331.267005 243.304659,306.726947 C254.415771,293.823722 255.491039,278.053112 254.415771,270.167808 C253.884153,266.26928 250.473118,252.963507 244.379928,245.078202 C241.411712,241.236981 235.486225,234.840669 228.609319,230.024438 C221.732413,225.208208 213.006984,221.462163 203.16129,217.479636 C217.498208,221.063865 224.308244,222.497557 238.286738,232.533399 C252.265233,242.569241 258.358423,257.981428 259.433692,261.565657 C260.508961,265.149886 263.017921,270.526231 262.301075,285.938417 C260.867384,298.841643 259.391469,302.046472 255.849462,308.877485 C252.957938,314.949685 250.155041,318.755133 246.285342,323.145222 Z" id="Combined-Shape"></path>
        </g>
    </g>
</svg>