<?xml version="1.0" encoding="UTF-8"?>
<svg width="30px" height="30px" viewBox="0 0 30 30" version="1.1" xmlns="http://www.w3.org/2000/svg" xmlns:xlink="http://www.w3.org/1999/xlink">
    <!-- Generator: Sketch 53 (72520) - https://sketchapp.com -->
    <title>GitHub</title>
    <desc>Created with Sketch.</desc>
    <g id="Symbols" stroke="none" stroke-width="1" fill="none" fill-rule="evenodd">
        <g id="HD_Desktop_header_Home" transform="translate(-1538.000000, -58.000000)" fill="#FFFFFF">
            <g id="Header">
                <path d="M1568,73.7951128 C1567.94603,74.2583723 1567.89891,74.7224863 1567.83682,75.1847206 C1567.56271,77.2238487 1566.86543,79.1138828 1565.7732,80.8526868 C1564.55268,82.7956941 1562.9969,84.4188114 1561.05088,85.6538569 C1560.03339,86.2996179 1558.94817,86.8066231 1557.80753,87.1895684 C1557.17559,87.4016322 1556.73848,87.0743943 1556.73531,86.4093237 C1556.72907,85.1020808 1556.73745,83.7947524 1556.73164,82.487424 C1556.72804,81.6908602 1556.64825,80.9063436 1556.21259,80.2087201 C1556.0855,80.0052003 1555.92463,79.8226135 1555.77393,79.6234512 C1556.35935,79.5140871 1556.9463,79.4362506 1557.51632,79.2916849 C1559.04696,78.9034423 1560.41543,78.2275208 1561.34791,76.8924242 C1562.03287,75.9115647 1562.34632,74.7851144 1562.48436,73.6108172 C1562.59169,72.6982249 1562.62222,71.7826422 1562.42971,70.8740656 C1562.23608,69.9599354 1561.84044,69.1418405 1561.22834,68.4359293 C1561.07756,68.2620575 1561.04763,68.1215929 1561.12221,67.896713 C1561.52468,66.6818314 1561.3562,65.491984 1560.9042,64.3262309 C1560.87829,64.2595017 1560.76574,64.1973008 1560.68569,64.1853391 C1560.15364,64.1058793 1559.65196,64.2559986 1559.18533,64.4761793 C1558.42904,64.8332361 1557.69764,65.242668 1556.9487,65.6159585 C1556.82229,65.6790137 1556.64782,65.7219904 1556.51706,65.6889249 C1554.16941,65.0964789 1551.82595,65.097077 1549.47805,65.6883268 C1549.34078,65.7228448 1549.14638,65.677134 1549.02331,65.5987849 C1548.07109,64.9919849 1547.06446,64.5120644 1545.97001,64.2236166 C1545.9511,64.218661 1545.93272,64.2115694 1545.91364,64.2077246 C1545.22551,64.0670892 1545.09971,64.1456947 1544.9036,64.8108506 C1544.58682,65.884755 1544.5296,66.9550708 1544.90668,68.0296587 C1544.93627,68.1139033 1544.90129,68.2616303 1544.8404,68.3306664 C1543.60397,69.7341156 1543.31096,71.3989279 1543.46559,73.1936101 C1543.55933,74.2817831 1543.81162,75.3262104 1544.29869,76.3083514 C1544.97176,77.6654063 1546.11181,78.4952066 1547.4926,78.982475 C1548.35956,79.2884382 1549.27852,79.4473579 1550.18824,79.6758264 C1550.19526,79.6319098 1550.20056,79.6666842 1550.18568,79.6820635 C1549.71726,80.1697591 1549.45556,80.755028 1549.34531,81.4170227 C1549.33137,81.5007546 1549.27365,81.6203716 1549.20685,81.6454912 C1548.16482,82.0372369 1547.11706,82.2433199 1546.08683,81.6149888 C1545.61867,81.3295314 1545.27683,80.9169382 1545.00101,80.4479541 C1544.56852,79.712395 1543.95864,79.179074 1543.13923,78.9361661 C1542.84434,78.8487602 1542.50823,78.8709748 1542.19359,78.8892591 C1541.97909,78.9018189 1541.90862,79.062362 1542.05256,79.2422147 C1542.18529,79.4077988 1542.32025,79.5950849 1542.4978,79.6971865 C1543.28625,80.1507913 1543.72798,80.8753286 1544.08881,81.6641173 C1544.30382,82.1341266 1544.48812,82.6140471 1544.88675,82.9753759 C1545.52169,83.5510755 1546.29115,83.7682658 1547.11612,83.8044072 C1547.81434,83.834995 1548.51496,83.8107298 1549.24722,83.8107298 C1549.24611,83.8009041 1549.26073,83.8742123 1549.26167,83.9476058 C1549.27211,84.7377616 1549.2828,85.5279173 1549.28844,86.3180731 C1549.294,87.0913115 1548.82935,87.4109452 1548.0952,87.1563319 C1544.28705,85.8355039 1541.4928,83.3342269 1539.62819,79.7992882 C1538.22405,77.1372118 1537.78027,74.2780237 1538.09739,71.2935795 C1538.4294,68.1688416 1539.66702,65.4337134 1541.73193,63.0872551 C1543.89022,60.6347648 1546.57714,59.0045559 1549.78825,58.3523869 C1554.45335,57.4048494 1558.71409,58.3562318 1562.44442,61.3515269 C1565.27245,63.6222848 1567.02271,66.5767393 1567.72914,70.1361141 C1567.83314,70.6605492 1567.87265,71.197715 1567.94398,71.7286436 C1567.95792,71.832625 1567.9811,71.9354102 1568,72.0387934 L1568,73.7951128 Z" id="GitHub"></path>
            </g>
        </g>
    </g>
</svg>