<?xml version="1.0" encoding="UTF-8"?>
<svg width="172px" height="30px" viewBox="0 0 172 30" version="1.1" xmlns="http://www.w3.org/2000/svg" xmlns:xlink="http://www.w3.org/1999/xlink">
    <!-- Generator: Sketch 57.1 (83088) - https://sketch.com -->
    <title>logo_vw_horiz_gray</title>
    <desc>Created with Sketch.</desc>
    <g id="Styles" stroke="none" stroke-width="1" fill="none" fill-rule="evenodd">
        <g id="Desktop-Copy" transform="translate(-944.000000, -314.000000)">
            <g id="logo_vw_horiz_gray" transform="translate(941.000000, 314.000000)">
                <rect id="framework" x="0" y="0" width="175" height="30"></rect>
                <path d="M49.488,22 L46.59,22 L42.252,10.12 L44.88,10.12 L47.382,17.68 L48.066,20.02 L48.732,17.698 L51.252,10.12 L53.808,10.12 L49.488,22 Z M58.524,12.82 C59.9760073,12.82 61.106996,13.2339959 61.917,14.062 C62.7270041,14.8900041 63.132,16.0359927 63.132,17.5 C63.132,18.9640073 62.7270041,20.1099959 61.917,20.938 C61.106996,21.7660041 59.9760073,22.18 58.524,22.18 C57.0719927,22.18 55.9410041,21.7660041 55.131,20.938 C54.320996,20.1099959 53.916,18.9640073 53.916,17.5 C53.916,16.0359927 54.320996,14.8900041 55.131,14.062 C55.9410041,13.2339959 57.0719927,12.82 58.524,12.82 Z M58.524,14.656 C57.8279965,14.656 57.2970018,14.8929976 56.931,15.367 C56.5649982,15.8410024 56.382,16.5519953 56.382,17.5 C56.382,18.4480047 56.5649982,19.1589976 56.931,19.633 C57.2970018,20.1070024 57.8279965,20.344 58.524,20.344 C59.2200035,20.344 59.7509982,20.1070024 60.117,19.633 C60.4830018,19.1589976 60.666,18.4480047 60.666,17.5 C60.666,16.5519953 60.4830018,15.8410024 60.117,15.367 C59.7509982,14.8929976 59.2200035,14.656 58.524,14.656 Z M79.368,13 L76.506,22 L73.644,22 L71.682,15.646 L69.792,22 L66.948,22 L64.086,13 L66.696,13 L68.496,20.02 L70.512,13 L72.942,13 L74.958,20.02 L76.758,13 L79.368,13 Z M86.316,12.82 C87.516006,12.82 88.4579966,13.2309959 89.142,14.053 C89.8260034,14.8750041 90.168,16.0179927 90.168,17.482 C90.168,18.9580074 89.8260034,20.1099959 89.142,20.938 C88.4579966,21.7660041 87.516006,22.18 86.316,22.18 C85.6679968,22.18 85.1040024,22.0330015 84.624,21.739 C84.1439976,21.4449985 83.7660014,21.0400026 83.49,20.524 L83.49,25.78 L81.024,25.78 L81.024,13 L83.202,13 L83.292,14.782 C83.5560013,14.181997 83.9489974,13.7050018 84.471,13.351 C84.9930026,12.9969982 85.6079965,12.82 86.316,12.82 Z M85.578,20.29 C86.2500034,20.29 86.7719981,20.0500024 87.144,19.57 C87.5160019,19.0899976 87.702,18.4000045 87.702,17.5 C87.702,16.5999955 87.5160019,15.9100024 87.144,15.43 C86.7719981,14.9499976 86.2500034,14.71 85.578,14.71 C84.977997,14.71 84.4920019,14.9169979 84.12,15.331 C83.7479981,15.7450021 83.5380002,16.3359962 83.49,17.104 L83.49,17.896 C83.5380002,18.6520038 83.7479981,19.2399979 84.12,19.66 C84.4920019,20.0800021 84.977997,20.29 85.578,20.29 Z M100.518,20.506 C100.770001,20.506 100.973999,20.4820002 101.13,20.434 L100.95,21.928 C100.613998,22.0960008 100.224002,22.18 99.78,22.18 C98.6279942,22.18 97.9380011,21.7300045 97.71,20.83 C97.4459987,21.2740022 97.0380028,21.6099989 96.486,21.838 C95.9339972,22.0660011 95.2800038,22.18 94.524,22.18 C93.6479956,22.18 92.9640025,21.982002 92.472,21.586 C91.9799975,21.189998 91.734,20.6200037 91.734,19.876 C91.734,18.4119927 92.9039883,17.4640022 95.244,17.032 L97.404,16.618 L97.404,16.186 C97.404,15.7059976 97.2690014,15.3250014 96.999,15.043 C96.7289987,14.7609986 96.3540024,14.62 95.874,14.62 C95.3219972,14.62 94.8720017,14.7399988 94.524,14.98 C94.1759983,15.2200012 93.9360007,15.6099973 93.804,16.15 L91.842,15.322 C92.034001,14.5419961 92.4659966,13.9300022 93.138,13.486 C93.8100034,13.0419978 94.6859946,12.82 95.766,12.82 C97.0500064,12.82 98.0519964,13.0989972 98.772,13.657 C99.4920036,14.2150028 99.852,15.0399945 99.852,16.132 L99.852,19.822 C99.852,20.0620012 99.9059995,20.2359995 100.014,20.344 C100.122001,20.4520005 100.289999,20.506 100.518,20.506 Z M95.298,20.506 C95.8260026,20.506 96.3089978,20.3770013 96.747,20.119 C97.1850022,19.8609987 97.404,19.5100022 97.404,19.066 L97.404,18.13 L95.478,18.562 C95.069998,18.6580005 94.767001,18.7869992 94.569,18.949 C94.370999,19.1110008 94.272,19.3359986 94.272,19.624 C94.272,19.9120014 94.3619991,20.1309992 94.542,20.281 C94.7220009,20.4310007 94.9739984,20.506 95.298,20.506 Z M105.054,19.138 C105.054,19.5700022 105.116999,19.8699992 105.243,20.038 C105.369001,20.2060008 105.599998,20.29 105.936,20.29 C106.140001,20.29 106.316999,20.2750001 106.467,20.245 C106.617001,20.2149998 106.793999,20.1640004 106.998,20.092 L106.782,21.802 C106.589999,21.9220006 106.338002,22.0149997 106.026,22.081 C105.713998,22.1470003 105.408002,22.18 105.108,22.18 C104.231996,22.18 103.593002,21.9670021 103.191,21.541 C102.788998,21.1149979 102.588,20.4340047 102.588,19.498 L102.588,9.058 L105.054,9.058 L105.054,19.138 Z M118.482,22 L115.62,22 L112.164,10.12 L114.846,10.12 L117.15,20.038 L119.526,10.12 L121.902,10.12 L124.314,20.038 L126.618,10.12 L129.174,10.12 L125.718,22 L122.928,22 L121.272,15.52 L120.714,12.712 L120.678,12.712 L120.12,15.52 L118.482,22 Z M138.336,20.506 C138.588001,20.506 138.791999,20.4820002 138.948,20.434 L138.768,21.928 C138.431998,22.0960008 138.042002,22.18 137.598,22.18 C136.445994,22.18 135.756001,21.7300045 135.528,20.83 C135.263999,21.2740022 134.856003,21.6099989 134.304,21.838 C133.751997,22.0660011 133.098004,22.18 132.342,22.18 C131.465996,22.18 130.782002,21.982002 130.29,21.586 C129.797998,21.189998 129.552,20.6200037 129.552,19.876 C129.552,18.4119927 130.721988,17.4640022 133.062,17.032 L135.222,16.618 L135.222,16.186 C135.222,15.7059976 135.087001,15.3250014 134.817,15.043 C134.546999,14.7609986 134.172002,14.62 133.692,14.62 C133.139997,14.62 132.690002,14.7399988 132.342,14.98 C131.993998,15.2200012 131.754001,15.6099973 131.622,16.15 L129.66,15.322 C129.852001,14.5419961 130.283997,13.9300022 130.956,13.486 C131.628003,13.0419978 132.503995,12.82 133.584,12.82 C134.868006,12.82 135.869996,13.0989972 136.59,13.657 C137.310004,14.2150028 137.67,15.0399945 137.67,16.132 L137.67,19.822 C137.67,20.0620012 137.723999,20.2359995 137.832,20.344 C137.940001,20.4520005 138.107999,20.506 138.336,20.506 Z M133.116,20.506 C133.644003,20.506 134.126998,20.3770013 134.565,20.119 C135.003002,19.8609987 135.222,19.5100022 135.222,19.066 L135.222,18.13 L133.296,18.562 C132.887998,18.6580005 132.585001,18.7869992 132.387,18.949 C132.188999,19.1110008 132.09,19.3359986 132.09,19.624 C132.09,19.9120014 132.179999,20.1309992 132.36,20.281 C132.540001,20.4310007 132.791998,20.506 133.116,20.506 Z M145.734,12.82 C146.934006,12.82 147.875997,13.2339959 148.56,14.062 C149.244003,14.8900041 149.586,16.0419926 149.586,17.518 C149.586,18.9820073 149.244003,20.1249959 148.56,20.947 C147.875997,21.7690041 146.934006,22.18 145.734,22.18 C145.025996,22.18 144.411003,22.0030018 143.889,21.649 C143.366997,21.2949982 142.974001,20.818003 142.71,20.218 L142.62,22 L140.442,22 L140.442,9.058 L142.908,9.058 L142.908,14.476 C143.184001,13.9599974 143.561998,13.5550015 144.042,13.261 C144.522002,12.9669985 145.085997,12.82 145.734,12.82 Z M144.996,20.29 C145.668003,20.29 146.189998,20.0500024 146.562,19.57 C146.934002,19.0899976 147.12,18.4000045 147.12,17.5 C147.12,16.5999955 146.934002,15.9100024 146.562,15.43 C146.189998,14.9499976 145.668003,14.71 144.996,14.71 C144.395997,14.71 143.910002,14.9199979 143.538,15.34 C143.165998,15.7600021 142.956,16.3479962 142.908,17.104 L142.908,17.896 C142.956,18.6640038 143.165998,19.2549979 143.538,19.669 C143.910002,20.0830021 144.395997,20.29 144.996,20.29 Z M157.056,12.82 C158.256006,12.82 159.197997,13.2339959 159.882,14.062 C160.566003,14.8900041 160.908,16.0419926 160.908,17.518 C160.908,18.9820073 160.566003,20.1249959 159.882,20.947 C159.197997,21.7690041 158.256006,22.18 157.056,22.18 C156.347996,22.18 155.733003,22.0030018 155.211,21.649 C154.688997,21.2949982 154.296001,20.818003 154.032,20.218 L153.942,22 L151.764,22 L151.764,9.058 L154.23,9.058 L154.23,14.476 C154.506001,13.9599974 154.883998,13.5550015 155.364,13.261 C155.844002,12.9669985 156.407997,12.82 157.056,12.82 Z M156.318,20.29 C156.990003,20.29 157.511998,20.0500024 157.884,19.57 C158.256002,19.0899976 158.442,18.4000045 158.442,17.5 C158.442,16.5999955 158.256002,15.9100024 157.884,15.43 C157.511998,14.9499976 156.990003,14.71 156.318,14.71 C155.717997,14.71 155.232002,14.9199979 154.86,15.34 C154.487998,15.7600021 154.278,16.3479962 154.23,17.104 L154.23,17.896 C154.278,18.6640038 154.487998,19.2549979 154.86,19.669 C155.232002,20.0830021 155.717997,20.29 156.318,20.29 Z M164.328,11.704 C163.307995,11.704 162.798,11.2660044 162.798,10.39 C162.798,9.50199556 163.307995,9.058 164.328,9.058 C165.348005,9.058 165.858,9.50199556 165.858,10.39 C165.858,11.2660044 165.348005,11.704 164.328,11.704 Z M165.552,22 L163.086,22 L163.086,13 L165.552,13 L165.552,22 Z M174.336,21.442 C174.047999,21.6700011 173.685002,21.8499993 173.247,21.982 C172.808998,22.1140007 172.350002,22.18 171.87,22.18 C169.86599,22.18 168.864,21.2740091 168.864,19.462 L168.864,14.836 L167.226,14.836 L167.226,13 L168.864,13 L168.864,10.93 L171.33,10.246 L171.33,13 L174.246,13 L174.246,14.836 L171.33,14.836 L171.33,19.066 C171.33,19.8940041 171.743996,20.308 172.572,20.308 C173.100003,20.308 173.561998,20.1400017 173.958,19.804 L174.336,21.442 Z" id="VowpalWabbit" fill="#333333" fill-rule="nonzero"></path>
                <g id="logo_vw_color" transform="translate(3.000000, 0.000000)" fill="#2A3B93">
                    <path d="M27.9875518,16.6117194 C27.9875518,9.21947752 21.9666728,9.36035971 21.9666728,9.36035971 C21.3736977,6.15536974 20.3362508,3.5963294 19.3414955,1.96947553 C18.1790857,0.436543115 17.3241355,0 17.3241355,0 C16.2887633,0.700737156 15.7766231,3.93943024 15.7766231,3.93943024 C14.1726939,1.18184505 12.329851,1.05294263 12.329851,1.05294263 C9.93824094,8.37466357 17.0427696,11.1203489 17.0427696,11.1203489 C9.97542657,11.1203489 6.33307087,15.0400524 4.59284756,17.9877167 C4.0042614,19.0524794 3.60319929,20.0302689 3.35048069,20.7371557 L2.99801525,21.8605394 C1.89952322,21.2108361 0.011355398,21.1878349 0.011355398,21.1878349 C-0.278708419,29.2136474 5.0845596,28.0167877 5.0845596,28.0167877 C5.0845596,29.1432063 6.56177043,30 6.56177043,30 L18.0978518,30 C18.0978518,30 17.9248509,28.5478912 16.7183131,27.7616983 C16.5196972,27.4693917 16.4533057,27.212705 16.6897456,26.9422016 C17.354698,26.1816454 17.8296525,27.1798804 17.8296525,27.1798804 L18.3302221,27.8553801 C19.7539686,29.627988 20.7440159,29.9516816 21.1646284,30 L21.391732,30 C20.5763614,27.5009384 20.6054875,25.3190215 20.6054875,25.3190215 C20.4822802,22.1365535 22.8107704,19.2166024 22.8107704,19.2166024 C28.5084697,19.2166024 27.9875518,16.6117194 27.9875518,16.6117194" id="logo_rabbit"></path>
                </g>
            </g>
        </g>
    </g>
</svg>